Coordinates
version=1
nRows=5
nColumns=42
inDegrees=yes

Units are S.I. units (second, meters, Newtons, ...)
If the header above contains a line with 'inDegrees', this indicates whether rotational values are in degrees (yes) or radians (no).

endheader
time	pelvis_tilt	pelvis_list	pelvis_rotation	pelvis_tx	pelvis_ty	pelvis_tz	hip_flexion_r	hip_adduction_r	hip_rotation_r	knee_angle_r	knee_adduction_r	knee_angle_r_beta	ankle_angle_r	subtalar_angle_r	mtp_angle_r	hip_flexion_l	hip_adduction_l	hip_rotation_l	knee_angle_l	knee_adduction_l	knee_angle_l_beta	ankle_angle_l	subtalar_angle_l	mtp_angle_l	lumbar_extension	lumbar_bending	lumbar_rotation	arm_flex_r	arm_add_r	arm_rot_r	elbow_flex_r	pro_sup_r	wrist_flex_r	wrist_dev_r	arm_flex_l	arm_add_l	arm_rot_l	elbow_flex_l	pro_sup_l	wrist_flex_l	wrist_dev_l
      0.99000000	     15.51124256	      0.60587607	     -7.20965889	     -0.88067036	      0.84765828	      0.10036376	    -17.85760044	     -2.73948836	      2.00967371	     54.44158805	     -0.84494754	      0.95018496	     -2.55488834	    -17.62819460	     -7.59964350	      2.80992425	      2.64609620	    -13.39017168	     21.55516539	      1.21705176	      0.37620861	     10.46079525	    -13.76770990	     -7.59964350	    -26.45720092	     -3.56225461	      7.25113464	     10.86734823	    -10.03413345	      2.37909081	     46.14197081	     90.00000001	      0.00000000	      0.00000000	     -6.68036117	     -1.82630275	    -22.21204790	     24.69095683	     90.00000001	      0.00000000	      0.00000000
      1.00000000	     15.47560986	      0.55377754	     -7.27426165	     -0.87000309	      0.84909220	      0.09931213	    -16.03106146	     -2.79684993	      2.33255670	     57.00310388	     -0.87057931	      0.99489185	     -2.12765780	    -18.01424767	     -7.59791305	      1.78428082	      2.74181224	    -13.73783572	     21.09721495	      1.32015827	      0.36821586	     11.08698784	    -13.23339044	     -7.59791305	    -26.54676113	     -3.42587146	      7.04618896	     10.22241228	     -9.94773714	      2.36660343	     45.55348109	     90.00000001	      0.00000000	      0.00000000	     -5.88239911	     -1.95969409	    -21.94295090	     25.08489063	     90.00000001	      0.00000000	      0.00000000
      1.01000000	     15.25076908	      0.49245009	     -7.27539329	     -0.85948355	      0.85026921	      0.09824060	    -13.94020995	     -2.78019762	      2.39928560	     59.37739845	     -1.02614186	      1.03633110	     -1.04501889	    -18.33538442	     -7.59007614	      1.05428900	      2.79542999	    -14.44915052	     20.75856629	      1.24920367	      0.36230533	     12.07638669	    -11.95599202	     -7.59007614	    -26.40544180	     -3.24013049	      6.78477481	      9.88280451	     -9.58727662	      1.92864981	     43.76040414	     90.00000001	      0.00000000	      0.00000000	     -5.10318743	     -2.29206543	    -20.53129961	     25.27008855	     90.00000001	      0.00000000	      0.00000000
      1.02000000	     15.26894774	      0.25611689	     -7.30780807	     -0.84915887	      0.85173868	      0.09732383	    -12.13605521	     -2.50477542	      2.28666008	     61.37485331	     -1.49702981	      1.07119327	     -0.18190535	    -18.49540390	     -7.58875345	     -0.09765317	      2.65042660	    -14.88439515	     20.19814394	      1.42024568	      0.35252411	     12.47149036	    -11.48623138	     -7.58875345	    -26.61683276	     -2.90882701	      6.57788880	      9.21725168	     -9.54281932	      1.90611845	     43.41146118	     90.00000001	      0.00000000	      0.00000000	     -4.22040569	     -2.43341655	    -20.32026303	     25.77263107	     90.00000001	      0.00000000	      0.00000000
      1.03000000	     15.00606378	      0.17819478	     -7.24964852	     -0.83886470	      0.85274976	      0.09629483	     -9.92011438	     -2.36444296	      1.31781003	     63.20018936	     -2.54332405	      1.10305139	      1.78255903	    -18.53728727	     -7.57943681	     -0.81139022	      2.67646058	    -15.67009113	     19.74396970	      1.34040898	      0.34459728	     13.56128957	     -9.79733095	     -7.57943681	    -26.44389892	     -2.66986995	      6.35073525	      8.74379643	     -9.18978559	      1.10201376	     41.77092174	     90.00000001	      0.00000000	      0.00000000	     -3.42756924	     -2.84757356	    -18.44306756	     26.16866307	     90.00000001	      0.00000000	      0.00000000
